<?xml version="1.0" encoding="utf-8"?>
<!-- Generator: Adobe Illustrator 19.0.0, SVG Export Plug-In . SVG Version: 6.00 Build 0)  -->
<svg version="1.1" id="Layer_1" xmlns="http://www.w3.org/2000/svg" xmlns:xlink="http://www.w3.org/1999/xlink" x="0px" y="0px"
	 viewBox="-375 252.3 91 91" style="enable-background:new -375 252.3 91 91;" xml:space="preserve">
<style type="text/css">
	.st0{fill:#FFFFFF;}
</style>
<g>
	<path class="st0" d="M-322.2,343.1c-6,0-10.8-4.8-10.8-10.8V313c0-1.9,1.6-3.5,3.5-3.5s3.5,1.6,3.5,3.5v19.2c0,2.1,1.7,3.8,3.8,3.8
		c2.1,0,3.8-1.7,3.8-3.8c0-1.9,1.6-3.5,3.5-3.5s3.5,1.6,3.5,3.5C-311.4,338.2-316.2,343.1-322.2,343.1z"/>
	<g>
		<path class="st0" d="M-340,264.1c-0.3,0-0.6,0-0.9-0.1c-1.9-0.5-3-2.4-2.5-4.3l1.2-4.6c0.5-1.9,2.4-3,4.3-2.5s3,2.4,2.5,4.3
			l-1.2,4.6C-337,263.1-338.5,264.1-340,264.1z"/>
		<path class="st0" d="M-315.4,264.1c-0.3,0-0.6,0-0.9-0.1c-1.9-0.5-3-2.4-2.5-4.3l1.2-4.6c0.5-1.9,2.4-3,4.3-2.5
			c1.9,0.5,3,2.4,2.5,4.3l-1.2,4.6C-312.4,263.1-313.9,264.1-315.4,264.1z"/>
		<path class="st0" d="M-328.9,271.9c-0.3,0-0.6,0-0.9-0.1c-1.9-0.5-3-2.4-2.5-4.3l1.2-4.6c0.5-1.9,2.4-3,4.3-2.5
			c1.9,0.5,3,2.4,2.5,4.3l-1.2,4.6C-325.9,270.9-327.3,271.9-328.9,271.9z"/>
		<path class="st0" d="M-305.2,277.3c-0.3,0-0.6,0-0.9-0.1c-1.9-0.5-3-2.4-2.5-4.3l1.2-4.6c0.5-1.9,2.4-3,4.3-2.5s3,2.4,2.5,4.3
			l-1.2,4.6C-302.3,276.3-303.7,277.3-305.2,277.3z"/>
		<path class="st0" d="M-352.8,277.3c-0.3,0-0.6,0-0.9-0.1c-1.9-0.5-3-2.4-2.5-4.3l1.2-4.6c0.5-1.9,2.4-3,4.3-2.5
			c1.9,0.5,3,2.4,2.5,4.3l-1.2,4.6C-349.8,276.3-351.3,277.3-352.8,277.3z"/>
	</g>
	<path class="st0" d="M-301.3,310.2L-301.3,310.2c-1.5,0-2.8-0.9-3.3-2.3c-0.1-0.2-1.4-3-5.4-3c-3.5,0-4.9,2-5.3,2.8
		c-0.4,1.4-1.8,2.5-3.4,2.5l0,0l0,0c-1.1,0-2.2-0.6-2.9-1.5c-0.1-0.2-0.2-0.4-0.3-0.6c-0.4-0.6-2.4-3.2-7.6-3.2c-5,0-7,2.4-7.5,3.1
		c-0.5,1.3-1.8,2.2-3.2,2.2l0,0l0,0c-1.2,0-2.3-0.6-3-1.6c-0.2-0.2-0.3-0.5-0.4-0.8c-0.3-0.7-1.7-2.9-5.4-2.9c-4.1,0-5.3,2.7-5.4,3
		c-0.5,1.4-1.8,2.2-3.3,2.2c-1.9,0-3.5-1.6-3.5-3.5c0-8.7,4.3-16.9,11.8-22.3c5.6-4.1,12.7-6.4,19.9-6.4c7.2,0,14.3,2.3,19.9,6.4
		c7.5,5.5,11.8,13.6,11.8,22.3C-297.8,308.6-299.4,310.2-301.3,310.2z M-329.5,297.9c5,0,8.3,1.6,10.5,3.3c1.9-1.7,4.7-3.3,9-3.3
		c1.2,0,2.3,0.1,3.3,0.4c-1.5-3.2-3.9-6-7-8.3c-4.4-3.2-10-5-15.8-5s-11.4,1.8-15.8,5c-3.1,2.3-5.5,5.1-7,8.3c1-0.2,2.1-0.4,3.3-0.4
		c4.2,0,7.1,1.6,9,3.3C-337.8,299.5-334.5,297.9-329.5,297.9z"/>
</g>
</svg>
